<svg width="960" height="500" viewBox="0 0 960 500" fill="none" xmlns="http://www.w3.org/2000/svg">
<path fill-rule="evenodd" clip-rule="evenodd" d="M703.606 500.002C720.976 484.491 736.935 466.423 751.275 445.393C834.665 323.103 825.555 181.414 781.912 36.2627C778.284 24.1982 774.418 12.1084 770.346 0.00244141H768.235C772.38 12.302 776.312 24.5838 779.996 36.8385C823.574 181.773 832.506 322.72 749.622 444.266C734.919 465.829 718.501 484.261 700.587 500.002H703.606ZM913.162 500.002H915.497C935.74 466.301 950.287 431.418 960 395.59V387.675C950.276 426.306 935.02 463.844 913.162 500.002ZM960 142.448C953.774 110.919 945.638 79.1024 936.048 47.1205C931.348 31.4475 926.3 15.7367 920.957 0.00244141H923.069C928.338 15.5433 933.321 31.0626 937.964 46.5461C946.591 75.3177 954.048 103.971 960 132.415V142.448ZM493.359 500.002C553.701 481.755 605.888 449.231 644.737 392.219C718.719 283.648 710.763 157.95 672.233 29.2398C669.32 19.5104 666.233 9.76255 662.992 0.00244141H660.885C664.196 9.9551 667.348 19.8942 670.317 29.8134C708.781 158.306 716.561 283.263 643.084 391.093C603.163 449.679 549.027 482.247 486.236 500.002H493.359ZM0 455.48C22.6062 453.952 45.5748 453.368 68.6949 453.305C97.2382 453.227 125.997 453.942 154.584 454.654L159.455 454.775C189.638 455.523 219.604 456.216 248.862 455.909C365.84 454.682 471.902 437.483 536.005 343.49C600.278 249.251 593.218 140.059 559.572 28.257C556.743 18.8563 553.726 9.43565 550.546 0.00244141H548.435C551.687 9.6294 554.771 19.2422 557.657 28.8334C591.238 140.418 598.118 248.868 534.353 342.364C470.861 435.459 365.769 452.682 248.841 453.909C219.623 454.215 189.691 453.524 159.505 452.775L154.63 452.654L154.625 452.654C126.045 451.943 97.2611 451.227 68.6895 451.305C45.5922 451.368 22.6238 451.95 0 453.475L0 455.48ZM0 379.313C9.36118 379.025 18.773 378.882 28.2153 378.843C52.1647 378.744 76.2943 379.312 100.282 379.877L104.365 379.973C129.69 380.567 154.836 381.114 179.39 380.822C277.551 379.653 366.643 365.067 420.589 285.885C474.669 206.508 468.86 114.641 440.754 20.6494C438.699 13.7782 436.525 6.8945 434.246 0.00244141H432.139C434.488 7.08682 436.726 14.1616 438.838 21.2224C466.879 114.995 472.511 206.123 418.937 284.759C365.6 363.046 277.475 377.653 179.366 378.822C154.853 379.114 129.74 378.567 104.412 377.973L100.297 377.877L100.271 377.876C76.3066 377.312 52.1683 376.744 28.2071 376.843C18.7727 376.882 9.36337 377.025 0 377.312L0 379.313ZM0 286.839C13.5074 286.978 27.0528 287.313 40.5424 287.647L43.7258 287.726C63.4115 288.211 82.9618 288.66 102.052 288.456C178.357 287.643 247.703 276.416 289.629 214.934C331.647 153.317 327.023 81.954 305.079 8.98143C304.18 5.99129 303.251 2.99811 302.296 0.00244141H300.196C301.217 3.19072 302.207 6.37594 303.164 9.55747C325.043 82.3127 329.488 152.934 287.977 213.807C246.662 274.392 178.285 285.644 102.031 286.456C82.9808 286.659 63.464 286.211 43.775 285.726L40.5827 285.647C27.0929 285.314 13.5303 284.978 0 284.839V286.839ZM0 218.835C12.7916 219.106 25.4837 219.305 37.9242 219.145C96.8609 218.386 150.542 209.57 183.091 161.76C215.7 113.863 212.231 58.4922 195.401 1.96021C195.206 1.3078 195.01 0.655207 194.813 0.00244141H192.722C192.979 0.845582 193.233 1.68841 193.484 2.53091C210.249 58.8438 213.543 113.477 181.438 160.634C149.497 207.551 96.7805 216.386 37.8984 217.145C25.4778 217.305 12.8002 217.106 0 216.834V218.835ZM0 135.111C23.6778 130.794 44.3295 121.054 58.7978 99.7227C79.2234 69.6089 78.4706 35.1957 69.1741 0.00244141H67.1049C76.4623 35.1179 77.1985 69.0312 57.1426 98.6C43.1469 119.234 23.1848 128.791 0 133.078V135.111Z" fill="#2CB1EA"/>
</svg>
