<svg width="960" height="500" viewBox="0 0 960 500" fill="none" xmlns="http://www.w3.org/2000/svg">
<path fill-rule="evenodd" clip-rule="evenodd" d="M111.212 500C107.944 496.87 104.706 493.738 101.5 490.604C62.3836 452.363 28.1898 413.757 8.15146 372.634C5.09391 366.359 2.36588 360.025 0 353.625V347.614C2.736 355.764 6.07479 363.806 9.94936 371.758C29.8296 412.557 63.8135 450.964 102.898 489.174C106.592 492.785 110.33 496.393 114.105 500H111.212ZM280.658 500C279.202 498.593 277.755 497.184 276.317 495.776C216.464 437.153 171.427 377.231 198.242 302.964C224.7 229.683 293.992 203.426 375.434 193.233C416.177 188.133 460.066 187.04 503.314 186.13C505.185 186.091 507.056 186.052 508.925 186.013L508.974 186.012C550.296 185.15 590.877 184.303 627.504 180.138C677.208 174.486 724.063 180.181 770.726 189.566C791.83 193.811 812.907 198.814 834.188 203.865L834.19 203.865C836.432 204.397 838.677 204.93 840.925 205.462C864.506 211.05 888.372 216.607 912.875 221.186C928.255 224.061 944.007 226.066 960 227.477V229.485C943.892 228.068 928.015 226.051 912.507 223.152C887.953 218.563 864.045 212.996 840.464 207.409C838.26 206.886 836.059 206.364 833.861 205.843L833.733 205.812C812.445 200.76 791.401 195.765 770.332 191.527C723.764 182.161 677.14 176.507 627.73 182.125C591.008 186.301 550.341 187.149 509.052 188.011C507.154 188.05 505.256 188.09 503.356 188.13C460.093 189.04 416.307 190.133 375.682 195.217C294.388 205.392 226.171 231.499 200.123 303.643C173.775 376.619 217.818 435.679 277.716 494.347C279.641 496.232 281.582 498.116 283.537 500H280.658ZM470.655 500C452.264 481.771 436.266 463.292 426.693 443.644C416.612 422.957 413.651 400.967 422.465 376.652C439.873 328.631 485.363 311.435 538.625 304.733C565.278 301.38 593.982 300.641 622.248 300.022C623.479 299.995 624.71 299.968 625.939 299.941C652.954 299.355 679.465 298.779 703.391 296.042C735.932 292.319 766.593 296.014 797.103 302.114C810.899 304.871 824.676 308.124 838.58 311.406L838.585 311.407L838.614 311.414C840.07 311.758 841.528 312.102 842.988 312.446C858.397 316.077 873.986 319.687 889.989 322.659C912.421 326.825 936.076 328.158 960 328.675V330.675C936.025 330.159 912.227 328.823 889.624 324.625C873.569 321.643 857.939 318.024 842.529 314.392C841.06 314.046 839.594 313.7 838.129 313.354L838.125 313.353C824.215 310.07 810.471 306.826 796.711 304.075C766.296 297.995 735.865 294.34 703.618 298.029C679.598 300.776 653.004 301.354 626.022 301.94C624.779 301.967 623.536 301.994 622.291 302.021C594.012 302.641 565.409 303.379 538.874 306.718C485.759 313.4 441.342 330.447 424.346 377.334C415.743 401.066 418.611 422.493 428.49 442.768C438.16 462.612 454.544 481.346 473.502 500H470.655ZM960 418.397C955.763 417.848 951.439 417.469 947.057 417.203C938.07 416.657 928.788 416.585 919.483 416.512H919.481C915.727 416.483 911.969 416.454 908.227 416.394C895.177 416.183 882.264 415.595 870.087 413.334C862.098 411.85 854.314 410.048 846.609 408.232C845.875 408.059 845.141 407.886 844.407 407.712L844.401 407.711C837.452 406.07 830.556 404.443 823.65 403.062C808.371 400.008 792.983 398.15 776.64 400.02C764.701 401.385 751.469 401.673 737.955 401.967L737.952 401.967L736.114 402.007C721.985 402.316 707.607 402.686 694.251 404.366C667.583 407.722 644.57 416.357 635.763 440.652C631.304 452.954 632.807 464.09 637.898 474.537C642.221 483.409 649.132 491.789 657.146 500H659.953C651.407 491.393 644.125 482.751 639.696 473.661C634.806 463.626 633.395 453.054 637.644 441.333C646.039 418.173 667.979 409.687 694.5 406.351C707.738 404.685 722.014 404.316 736.157 404.006L738.033 403.966L738.038 403.965C751.519 403.673 764.835 403.383 776.867 402.007C792.917 400.171 808.075 401.988 823.258 405.023C830.126 406.396 836.986 408.016 843.939 409.657L843.952 409.66L845.512 410.028L846.151 410.179C853.856 411.994 861.681 413.807 869.722 415.3C882.071 417.593 895.122 418.183 908.194 418.393C911.975 418.454 915.754 418.484 919.52 418.513C928.804 418.585 938.004 418.656 946.935 419.199C951.379 419.469 955.742 419.855 960 420.414V418.397ZM960 138.338V136.32C951.14 135.101 942.356 133.699 933.663 132.084C901.631 126.136 870.433 118.912 839.613 111.649C836.677 110.957 833.743 110.264 830.813 109.572L830.811 109.572C802.997 103.006 775.455 96.5046 747.878 90.9917C686.905 78.8028 625.697 71.4329 560.763 78.8606C512.864 84.3398 459.802 85.4926 405.79 86.6661H405.79C403.323 86.7197 400.854 86.7733 398.384 86.8275C341.847 88.0655 284.49 89.543 231.242 96.2425C125.058 109.602 34.802 143.782 0 238.711V244.762C0.515142 243.217 1.05447 241.666 1.6183 240.111C35.8167 145.77 125.187 111.602 231.491 98.2269C284.621 91.5423 341.876 90.0653 398.428 88.827C400.837 88.7742 403.245 88.7219 405.651 88.6697L405.869 88.6649C459.849 87.4923 512.996 86.3377 560.991 80.8476C625.631 73.4534 686.608 80.7831 747.485 92.9529C775.026 98.4583 802.532 104.951 830.351 111.518L830.355 111.519C833.284 112.211 836.218 112.903 839.155 113.595C869.974 120.858 901.214 128.092 933.298 134.051C942.112 135.688 951.018 137.107 960 138.338ZM960 54.1794V52.1509C956.773 51.6026 953.555 51.0313 950.347 50.436C911.717 43.2668 874.094 34.5601 836.931 25.8073C833.456 24.9888 829.985 24.1699 826.517 23.3518L826.316 23.3043C792.777 15.3917 759.571 7.5575 726.322 0.915143C724.783 0.607674 723.244 0.302752 721.705 0.000488281H711.117C716.057 0.930333 720.994 1.89018 725.93 2.8764C759.144 9.51181 792.318 17.3382 825.864 25.2524L825.895 25.2598C829.417 26.0907 832.942 26.9225 836.473 27.754C873.635 36.5068 911.3 45.2236 949.982 52.4024C953.311 53.0202 956.65 53.6121 960 54.1794ZM229.872 0.000488281C186.795 1.59409 144.23 4.18421 103.659 9.29153C67.0955 13.8944 32.1846 20.5374 0 30.3238L0 28.2359C32.1832 18.4969 67.0168 11.8885 103.41 7.30714C130.426 3.90614 158.32 1.61978 186.65 0.000488281H229.872Z" fill="#2CB1EA"/>
</svg>
