<svg width="1561" height="407" viewBox="0 0 1561 407" fill="none" xmlns="http://www.w3.org/2000/svg">
<path fill-rule="evenodd" clip-rule="evenodd" d="M696.343 340.863C490.616 284.176 345.699 197.865 199.932 111.046C141.311 76.1324 82.5531 41.1366 19.6474 7.95254C14.625 5.30316 9.55387 2.65226 4.4379 0H0.0865914C6.36292 3.2421 12.5745 6.48267 18.7143 9.7215C81.4537 42.8178 140.124 77.7611 198.699 112.647C344.551 199.515 489.81 286.029 695.812 342.791C948.307 412.365 1161.16 408.317 1361.14 404.513L1361.15 404.513C1389.82 403.967 1418.22 403.427 1446.44 403.109C1487.65 402.646 1525.55 400.61 1561 397.375V395.368C1525.55 398.608 1487.64 400.646 1446.42 401.11C1418.18 401.427 1389.76 401.968 1361.08 402.513C1161.1 406.315 948.542 410.356 696.343 340.863ZM1561 351.06C1512.69 357.767 1459.81 362.168 1399.1 362.846C1373.24 363.134 1347.21 363.627 1320.94 364.125L1320.93 364.125C1137.69 367.595 942.634 371.288 711.247 307.531C522.466 255.513 389.341 176.24 255.682 96.6496C202.007 64.6878 148.247 32.6748 90.7613 2.35488C89.2732 1.57003 87.7806 0.785068 86.2834 0L90.5828 0C90.9536 0.195301 91.3242 0.390592 91.6944 0.585875C149.346 30.9935 203.194 63.059 256.914 95.0484C390.488 174.59 523.272 253.66 711.778 305.602C942.869 369.278 1137.63 365.593 1320.88 362.125C1347.16 361.628 1373.2 361.135 1399.08 360.846C1459.81 360.168 1512.69 355.76 1561 349.041V351.06ZM1561 273.273C1494.32 287.746 1421.96 298.903 1328.16 299.869C1305.63 300.101 1282.95 300.51 1260.06 300.924C1100.43 303.804 930.488 306.871 728.846 251.309C564.33 205.977 448.277 137.001 331.774 67.7584L331.774 67.7583L331.773 67.7576C293.35 44.9212 254.878 22.0559 214.604 0H218.762C258.009 21.5819 295.542 43.8899 333.002 66.1547L333.004 66.1557C449.422 135.35 565.136 204.125 729.377 249.381C930.723 304.861 1100.37 301.802 1260.01 298.924L1260.02 298.923C1282.91 298.511 1305.59 298.102 1328.14 297.869C1421.97 296.903 1494.29 285.727 1561 271.226V273.273ZM1561 183.291C1558.58 183.833 1556.2 184.386 1553.84 184.95C1540.65 188.11 1527.7 191.335 1514.81 194.545L1514.8 194.547C1437.66 213.759 1362.59 232.454 1250.77 233.666C1232.11 233.869 1213.32 234.218 1194.36 234.571L1194.35 234.571C1062.06 237.033 921.204 239.653 754.104 193.61C617.767 156.042 521.595 98.815 425.073 41.3793L425.072 41.3786C401.76 27.5065 378.427 13.6223 354.503 0H358.545C381.505 13.1188 403.921 26.458 426.305 39.7777C522.742 97.1643 618.573 154.19 754.635 191.681C921.439 237.644 1062 235.031 1194.29 232.571C1213.27 232.218 1232.07 231.869 1250.75 231.666C1362.32 230.456 1437.17 211.818 1514.3 192.611L1514.31 192.61C1527.2 189.398 1540.17 186.17 1553.38 183.005C1555.88 182.404 1558.42 181.817 1561 181.241V183.291ZM555.234 0C556.464 0.731958 557.695 1.46395 558.925 2.19591L558.925 2.19628L558.926 2.19647C628.279 43.4601 697.417 84.5955 795.399 111.594C915.484 144.683 1016.71 142.805 1111.75 141.042C1125.37 140.79 1138.87 140.539 1152.28 140.395C1232.63 139.528 1286.59 126.096 1342.02 112.3C1351.28 109.994 1360.58 107.678 1370.06 105.409C1391.14 100.361 1415.78 96.5812 1440.86 92.9638C1444.48 92.4425 1448.1 91.9246 1451.73 91.4067L1451.74 91.4045C1473.25 88.3319 1494.74 85.2608 1514.21 81.5003C1531.92 78.0813 1548.03 74.0813 1561 68.9623V66.81C1548.1 71.9916 1531.87 76.0545 1513.83 79.5366C1494.41 83.2869 1472.98 86.35 1451.47 89.4231L1451.47 89.4235L1451.44 89.4274C1447.82 89.945 1444.19 90.4628 1440.58 90.9843C1415.5 94.6008 1390.77 98.3912 1369.59 103.464C1360.1 105.738 1350.78 108.056 1341.51 110.363C1286.1 124.155 1232.37 137.531 1152.25 138.395C1138.83 138.54 1125.32 138.79 1111.69 139.042C1016.66 140.803 915.719 142.673 795.93 109.666C698.223 82.7431 629.426 41.809 560.157 0.594488L560.156 0.594166C559.823 0.396116 559.49 0.198061 559.158 0H555.234ZM746.558 0C769.715 11.3825 795.042 21.6878 824.705 29.8614C897.774 49.9954 959.376 48.8608 1017.15 47.7966C1025.44 47.644 1033.64 47.4929 1041.79 47.4061C1090.69 46.8852 1123.54 38.7154 1157.24 30.3348L1157.24 30.3334C1162.87 28.9337 1168.52 27.5281 1174.28 26.1514C1187.07 23.0897 1202.04 20.7971 1217.29 18.6005C1219.49 18.2846 1221.69 17.9707 1223.89 17.6568L1223.9 17.6543C1236.97 15.7888 1250.05 13.9225 1261.9 11.6367C1275.74 8.96835 1288.01 5.70989 1296.71 1.15512C1297.42 0.78018 1298.11 0.395281 1298.78 0H1294.56C1286.22 4.09614 1274.68 7.13556 1261.53 9.6729C1249.73 11.9485 1236.71 13.8068 1223.63 15.6727L1223.63 15.673L1223.59 15.6779C1221.4 15.9914 1219.2 16.305 1217.01 16.6209C1201.76 18.8166 1186.71 21.1203 1173.81 24.2063C1168.04 25.5877 1162.38 26.996 1156.74 28.397L1156.74 28.3985C1123.05 36.7745 1090.42 44.888 1041.77 45.4062C1033.61 45.4932 1025.39 45.6441 1017.11 45.7964L1017.1 45.7966C959.32 46.8587 898.01 47.9857 825.236 27.9332C797.245 20.2203 773.165 10.6194 751.117 0L746.558 0Z" fill="#578295"/>
</svg>
