<svg width="602" height="903" viewBox="0 0 602 903" fill="none" xmlns="http://www.w3.org/2000/svg">
<path fill-rule="evenodd" clip-rule="evenodd" d="M0 853.573C0.812592 854.105 1.62637 854.633 2.44128 855.159C53.7734 888.252 109.781 908.658 170.396 901.608C228.688 894.829 271.19 858.878 308.343 813.508C326.779 790.996 343.928 766.125 361.043 741.304L361.438 740.731C378.693 715.706 395.924 690.75 414.454 668.246C420.983 660.318 427.544 652.45 434.084 644.609C490.613 576.827 545.545 510.961 564.15 423.674C567.106 409.803 570.333 395.558 573.615 381.067C585.442 328.851 597.991 273.45 601.211 220.95C605.326 153.855 594.231 91.2256 546.75 45.8163C499.299 0.436337 436.973 -5.21486 370.705 3.37156C337.564 7.66565 303.381 15.5279 269.512 23.8016C263.616 25.2419 257.73 26.6945 251.86 28.143C223.995 35.0202 196.503 41.8049 170.097 46.7376C109.163 58.1198 52.5691 77.0086 0 105.091V107.36C52.6415 79.1022 109.351 60.1193 170.464 48.7036C196.932 43.7594 224.491 36.9579 252.357 30.0804L252.358 30.0803C258.223 28.6328 264.101 27.182 269.986 25.7445C303.851 17.4718 337.941 9.63357 370.962 5.35498C437.018 -3.20397 498.574 2.51048 545.367 47.2617C592.227 92.0766 603.315 153.981 599.215 220.828C596.005 273.149 583.507 328.333 571.685 380.529L571.682 380.542C568.396 395.053 565.162 409.333 562.194 423.257C543.699 510.03 489.103 575.503 432.534 643.342C426.002 651.176 419.443 659.041 412.91 666.975C394.317 689.556 377.038 714.584 359.791 739.596L359.419 740.136L359.416 740.141C342.285 764.984 325.177 789.795 306.796 812.241C269.763 857.464 227.687 892.931 170.165 899.622C110.168 906.6 54.6269 886.423 3.52499 853.478C2.3476 852.719 1.17261 851.953 0 851.18V853.573ZM0 764.056C10.2906 772.155 20.8289 779.772 31.614 786.709C73.8557 813.875 119.963 830.639 169.874 824.848C217.887 819.277 252.884 789.737 283.453 752.497C298.622 734.019 312.731 713.607 326.807 693.243L326.808 693.242L327.133 692.771C341.327 672.236 355.495 651.766 370.73 633.308C376.1 626.803 381.497 620.348 386.876 613.913L386.877 613.913C433.369 558.303 478.582 504.223 493.894 432.556C496.324 421.182 498.977 409.499 501.676 397.613L501.677 397.608C511.406 354.762 521.731 309.285 524.381 266.192C527.767 211.117 518.64 159.663 479.53 122.351C440.443 85.0605 389.112 80.4294 334.588 87.477C307.318 91.0017 279.194 97.4549 251.336 104.244C246.485 105.426 241.643 106.618 236.815 107.806C213.896 113.449 191.29 119.015 169.575 123.061C107.792 134.574 51.4273 155.445 0 188.266V190.641C51.481 157.573 107.955 136.578 169.942 125.027C191.717 120.969 214.391 115.387 237.311 109.744L237.312 109.744C242.136 108.556 246.97 107.366 251.809 106.187C279.663 99.399 307.694 92.9698 334.844 89.4605C389.158 82.4402 439.72 87.1347 478.15 123.798C516.637 160.516 525.756 211.244 522.385 266.069C519.746 308.983 509.471 354.242 499.748 397.067L499.748 397.068C497.043 408.981 494.381 420.705 491.938 432.138C476.736 503.29 431.861 556.976 385.329 612.644L385.328 612.645C379.956 619.072 374.561 625.526 369.188 632.035C353.889 650.57 339.673 671.112 325.488 691.633L325.185 692.072C311.092 712.46 297.023 732.815 281.908 751.228C251.459 788.321 216.889 817.38 169.643 822.861C120.35 828.581 74.7072 812.045 32.6959 785.026C21.5355 777.849 10.6369 769.935 0 761.508V764.056ZM0 706.349C14.8005 719.304 30.2363 731.397 46.3035 741.747C83.0023 765.386 123.074 779.982 166.458 774.94C208.205 770.089 238.625 744.363 265.18 711.963C278.356 695.887 290.611 678.129 302.834 660.418L303.119 660.005C315.446 642.143 327.747 624.343 340.973 608.294C345.635 602.637 350.32 597.024 354.992 591.428L354.995 591.423C395.368 543.058 434.653 495.994 447.958 433.626C450.068 423.736 452.371 413.576 454.714 403.239L454.715 403.236L454.715 403.235C463.164 365.967 472.134 326.398 474.436 288.905C477.378 240.985 469.451 196.184 435.447 163.691C401.459 131.215 356.831 127.191 309.467 133.323C285.778 136.39 261.348 142.004 237.155 147.909C232.947 148.936 228.746 149.972 224.557 151.005L224.543 151.008C204.64 155.916 185.013 160.756 166.16 164.274C104.838 175.719 49.6584 197.794 0 233.864V236.339C49.6978 199.954 104.98 177.727 166.526 166.241C185.441 162.71 205.135 157.854 225.04 152.946L225.041 152.945C229.23 151.913 233.427 150.877 237.629 149.852C261.818 143.948 286.154 138.357 309.724 135.306C356.876 129.202 400.735 133.289 434.065 165.137C467.448 197.035 475.366 241.111 472.44 288.782C470.149 326.097 461.228 365.45 452.785 402.697C450.436 413.06 448.124 423.26 446.002 433.208C432.807 495.062 393.858 541.733 353.446 590.156C348.781 595.746 344.097 601.359 339.43 607.022C326.14 623.148 313.791 641.02 301.473 658.869L301.21 659.25L301.207 659.254C288.969 676.987 276.755 694.685 263.633 710.695C237.198 742.949 207.205 768.192 166.228 772.954C123.461 777.923 83.855 763.556 47.3866 740.065C30.9369 729.469 15.1417 717.028 0 703.687V706.349ZM0 620.501C21.0382 641.931 44.0128 663.287 68.8979 679.366C98.0582 698.208 129.921 709.856 164.431 705.834C197.655 701.961 221.851 681.422 242.946 655.604C253.412 642.794 263.146 628.645 272.849 614.542L273.077 614.21C282.865 599.984 292.626 585.815 303.121 573.041C306.822 568.536 310.543 564.064 314.253 559.606C346.303 521.092 377.527 483.571 388.102 433.848C389.776 425.977 391.604 417.888 393.464 409.657C400.172 379.974 407.299 348.44 409.127 318.561C411.465 280.373 405.171 244.62 378.11 218.682C351.059 192.753 315.547 189.554 277.92 194.441C259.099 196.885 239.694 201.359 220.486 206.062C217.14 206.881 213.8 207.707 210.471 208.53C194.668 212.439 179.092 216.292 164.131 219.093C109.308 229.357 60.6587 250.351 17.4866 285.899C13.4927 289.187 9.44043 292.486 5.36255 295.806L5.35706 295.81L5.3566 295.811C3.57507 297.261 1.78864 298.715 0 300.174V302.757C2.19867 300.961 4.39633 299.172 6.58807 297.388L6.58853 297.387C10.6761 294.059 14.7431 290.748 18.7579 287.443C61.6395 252.134 109.968 231.268 164.499 221.059C179.522 218.246 195.165 214.377 210.968 210.468L210.969 210.467L211.027 210.453C214.332 209.635 217.645 208.816 220.961 208.004C240.165 203.302 259.477 198.853 278.177 196.424C315.591 191.565 350.332 194.827 376.726 220.126C403.167 245.469 409.453 280.498 407.131 318.439C405.314 348.139 398.236 379.458 391.534 409.12C389.668 417.376 387.832 425.503 386.145 433.432C375.68 482.641 344.791 519.77 312.703 558.34C309 562.791 305.281 567.261 301.575 571.772C291.017 584.623 281.208 598.863 271.429 613.077L271.225 613.374C261.506 627.501 251.811 641.593 241.397 654.338C220.421 680.011 196.653 700.064 164.199 703.847C130.31 707.797 98.9134 696.379 69.9833 677.686C44.7166 661.36 21.3915 639.525 0 617.643V620.501ZM0 550.022C8.0994 560.183 16.7977 569.883 25.5751 579.097C44.5233 598.987 65.5991 619.785 88.7642 634.811C111.938 649.843 137.282 659.151 164.745 655.938C191.202 652.842 210.455 636.422 227.214 615.83C235.528 605.615 243.259 594.333 250.96 583.096L251.145 582.827C258.916 571.487 266.661 560.202 274.986 550.029C277.92 546.444 280.87 542.885 283.812 539.336L283.824 539.321C309.265 508.631 334.087 478.687 342.493 439.007C343.821 432.739 345.271 426.297 346.747 419.739C352.074 396.08 357.736 370.926 359.189 347.095C361.046 316.635 356.049 288.068 334.503 267.335C312.959 246.604 284.686 244.061 254.791 247.959C239.838 249.908 224.422 253.476 209.172 257.224C206.52 257.876 203.873 258.534 201.235 259.189L201.218 259.193C188.673 262.308 176.315 265.377 164.444 267.608C120.89 275.794 82.2339 292.539 47.93 320.896C44.7598 323.516 41.5426 326.145 38.3045 328.792C25.3129 339.409 11.9843 350.302 0 362.014V364.819C12.2522 352.668 26.0323 341.406 39.5391 330.366C42.7849 327.713 46.015 325.073 49.2042 322.437C83.2177 294.321 121.552 277.704 164.813 269.573C176.746 267.331 189.172 264.245 201.718 261.129C204.358 260.474 207.003 259.817 209.649 259.167C224.895 255.42 240.216 251.876 255.05 249.942C284.73 246.072 312.23 248.678 333.116 268.776C354.044 288.914 359.035 316.759 357.193 346.974C355.751 370.626 350.137 395.565 344.817 419.203L344.817 419.204L344.816 419.205C343.335 425.787 341.876 432.268 340.536 438.593C332.239 477.76 307.75 507.312 282.272 538.058L282.271 538.058L282.263 538.068C279.327 541.611 276.377 545.171 273.438 548.762C265.05 559.012 257.257 570.369 249.495 581.696L249.334 581.93C241.617 593.192 233.924 604.417 225.663 614.568C209.022 635.014 190.196 650.946 164.512 653.951C137.673 657.092 112.796 648.016 89.8526 633.133C66.9002 618.245 45.962 597.597 27.0232 577.717C17.6844 567.914 8.47519 557.598 0 546.796V550.022ZM162.426 342.246C169.782 340.869 177.442 338.973 185.164 337.062L185.207 337.052C186.816 336.654 188.427 336.255 190.038 335.86C199.419 333.563 208.83 331.394 217.935 330.211C236.16 327.844 252.935 329.454 265.662 341.657C278.421 353.891 281.49 370.825 280.359 389.305C279.474 403.774 276.03 419.024 272.757 433.515L272.756 433.516C271.843 437.557 270.944 441.539 270.117 445.429C265.032 469.347 250.027 487.392 234.34 506.257C232.533 508.431 230.717 510.615 228.905 512.82C223.731 519.121 218.927 526.099 214.151 533.042L214.058 533.178C209.305 540.089 204.579 546.961 199.504 553.174C189.287 565.683 177.784 575.359 162.126 577.185C145.729 579.097 130.509 573.576 116.434 564.478C102.351 555.375 89.4921 542.743 77.8393 530.554C55.0853 506.754 33.7033 478.13 36.524 445.724C37.8627 430.344 45.4837 417.57 55.8583 406.115C64.5679 396.498 75.1507 387.879 85.5001 379.45C87.4991 377.822 89.4893 376.201 91.4556 374.582C112.331 357.387 135.86 347.222 162.426 342.246ZM267.046 340.213C253.662 327.38 236.115 325.833 217.678 328.228C208.453 329.426 198.948 331.619 189.563 333.918C187.925 334.319 186.291 334.723 184.663 335.126L184.661 335.126C176.942 337.036 169.351 338.915 162.058 340.28C135.2 345.311 111.35 355.604 90.1841 373.038C88.2415 374.638 86.2691 376.244 84.2827 377.862L84.2681 377.874C73.9199 386.301 63.197 395.033 54.3759 404.773C43.8403 416.406 35.9222 429.573 34.5316 445.55C31.6266 478.924 53.64 508.136 76.3936 531.936C88.0559 544.135 101.052 556.917 115.349 566.158C129.654 575.404 145.34 581.156 162.358 579.172C178.787 577.256 190.717 567.094 201.053 554.439C206.18 548.162 210.946 541.232 215.682 534.346L215.799 534.175C220.583 527.219 225.34 520.313 230.451 514.09C232.258 511.889 234.077 509.703 235.891 507.522C251.539 488.715 266.879 470.277 272.073 445.845C272.888 442.012 273.779 438.069 274.686 434.053C277.965 419.541 281.46 404.074 282.356 389.427C283.501 370.7 280.425 353.042 267.046 340.213ZM158.173 407.418C161.064 406.885 164.077 406.151 167.093 405.416C167.726 405.262 168.359 405.108 168.991 404.955C172.654 404.072 176.302 403.245 179.823 402.794C186.88 401.892 193.202 402.531 197.973 407.036C202.764 411.559 203.959 417.846 203.523 424.874C203.18 430.383 201.851 436.181 200.574 441.747C200.216 443.309 199.862 444.853 199.535 446.367C197.583 455.407 191.827 462.225 185.686 469.5C184.982 470.334 184.274 471.173 183.566 472.022C181.525 474.469 179.633 477.175 177.77 479.841L177.741 479.884L177.74 479.885C175.878 482.55 174.045 485.174 172.08 487.544C168.127 492.309 163.763 495.887 157.877 496.563C151.656 497.277 145.85 495.22 140.422 491.766C134.986 488.306 130.005 483.493 125.457 478.808C116.566 469.651 108.415 458.826 109.49 446.667C109.996 440.939 112.878 436.149 116.882 431.797C120.249 428.135 124.34 424.855 128.383 421.612L128.383 421.612C129.166 420.984 129.948 420.357 130.722 419.729C138.788 413.188 147.882 409.316 158.173 407.418ZM199.346 405.581C193.918 400.457 186.833 399.882 179.569 400.811C175.93 401.276 172.189 402.127 168.522 403.011C167.879 403.166 167.238 403.322 166.601 403.477L166.6 403.478C163.585 404.212 160.64 404.929 157.81 405.451C147.232 407.402 137.819 411.399 129.462 418.176C128.707 418.788 127.939 419.404 127.163 420.026C123.122 423.266 118.89 426.659 115.41 430.443C111.245 434.97 108.057 440.157 107.497 446.49C106.336 459.632 115.136 471.05 124.022 480.201C128.58 484.896 133.699 489.858 139.349 493.453C145.007 497.054 151.273 499.334 158.105 498.549C164.753 497.786 169.543 493.734 173.619 488.821C175.638 486.387 177.512 483.704 179.357 481.063L179.357 481.062L179.41 480.986C181.282 478.307 183.125 475.673 185.101 473.303C185.386 472.962 185.672 472.621 185.958 472.28C186.381 471.779 186.804 471.278 187.227 470.777C193.328 463.561 199.426 456.347 201.49 446.789C201.804 445.333 202.149 443.829 202.502 442.292C203.784 436.705 205.165 430.688 205.519 424.998C205.971 417.715 204.766 410.698 199.346 405.581Z" fill="#578295"/>
</svg>
