<svg width="768" height="503" viewBox="0 0 768 503" fill="none" xmlns="http://www.w3.org/2000/svg">
<path fill-rule="evenodd" clip-rule="evenodd" d="M768 11.5176C642.074 -4.57366 504.925 -7.26214 394.76 30.3785C305.833 60.7623 209.034 106.042 133.551 166.911C58.0704 227.779 3.79735 304.329 0.202009 397.24C-1.32558 436.717 8.36705 471.477 25.8295 503H28.1196C10.4641 471.482 0.674055 436.764 2.20054 397.318C5.765 305.205 59.5685 229.14 134.807 168.468C210.043 107.797 306.605 62.6119 395.406 32.2711C505.247 -5.25823 642.156 -2.56536 768 13.5347V11.5176ZM768 64.3111C651.683 48.1514 525.315 44.1529 421.137 79.6163C340.311 107.13 252.331 148.151 183.733 203.324C115.138 258.495 65.8168 327.911 62.5897 412.202C61.3005 445.877 69.0295 475.771 83.1671 503H85.4247C71.1156 475.78 63.3002 445.924 64.5882 412.279C67.7847 328.789 116.635 259.858 184.987 204.882C253.337 149.908 341.08 108.981 421.781 81.5098C525.626 46.1597 651.748 50.1602 768 66.3316V64.3111ZM768 117.016C661.393 103.339 541.982 102.092 448.299 133.891C376.574 158.237 298.499 194.547 237.629 243.406C176.761 292.263 132.988 353.761 130.152 428.471C129.111 455.884 134.824 480.473 145.494 503H147.711C136.897 480.485 131.111 455.932 132.15 428.547C134.956 354.64 178.255 293.628 238.881 244.966C299.504 196.306 377.342 160.088 448.942 135.785C542.302 104.096 661.488 105.346 768 119.032V117.016ZM768 179.573C677.797 171.636 574.776 184.103 494.382 211.508C435.76 231.492 371.933 261.286 322.157 301.36C272.383 341.434 236.549 391.881 234.193 453.16C233.502 471.153 236.348 487.66 241.976 503H244.111C238.392 487.679 235.501 471.204 236.192 453.237C238.517 392.758 273.88 342.796 323.411 302.919C372.941 263.042 436.53 233.342 495.027 213.401C575.229 186.062 678.053 173.638 768 181.581V179.573ZM768 267.527C736.901 265.322 701.836 269.266 667.079 276.155C623.535 284.785 580.382 298.056 545.96 309.747C503.84 324.052 457.97 345.393 422.194 374.121C386.42 402.847 360.631 439.055 358.957 483.082C358.693 490.017 359.162 496.645 360.28 503H362.313C361.173 496.669 360.692 490.066 360.955 483.157C362.599 439.933 387.915 404.212 423.446 375.68C458.975 347.15 504.608 325.904 546.603 311.641C580.989 299.962 624.048 286.722 667.468 278.117C702.215 271.23 737.135 267.324 768 269.532V267.527ZM768 324.088C766.341 323.691 764.68 323.333 763.015 323.015C750.036 320.533 735.519 321.935 720.33 325.646C705.135 329.357 689.205 335.397 673.378 342.249C661.043 347.589 648.745 353.435 636.895 359.068L636.872 359.08C633.528 360.669 630.22 362.241 626.957 363.78C612.105 370.786 598.189 377.103 585.997 381.263C555.979 391.504 523.272 406.779 497.748 427.341C472.876 447.378 454.723 472.524 452.69 503H454.694C456.722 473.349 474.405 448.715 499.003 428.899C524.28 408.536 556.75 393.355 586.642 383.156C598.954 378.955 612.962 372.593 627.81 365.589C631.092 364.041 634.416 362.461 637.773 360.865L637.785 360.859C649.626 355.231 661.878 349.407 674.173 344.085C689.956 337.252 705.768 331.262 720.804 327.588C735.847 323.914 750.051 322.572 762.64 324.979C764.429 325.321 766.216 325.711 768 326.146V324.088ZM768 403.181C760.106 400.001 752.491 397.597 745.688 396.297C738.83 394.987 730.342 396.374 721.02 399.475C711.674 402.584 701.376 407.454 690.847 413.235C669.788 424.798 647.69 440.07 630.267 452.382C612.827 464.705 597.23 477.121 585.824 490.572C582.402 494.608 579.354 498.743 576.744 503H579.1C581.502 499.208 584.266 495.503 587.35 491.866C598.587 478.613 614.014 466.315 631.421 454.015C648.845 441.704 670.86 426.491 691.81 414.988C702.285 409.237 712.465 404.428 721.651 401.373C730.859 398.31 738.955 397.047 745.312 398.261C752.182 399.574 759.939 402.048 768 405.339V403.181Z" fill="#578295"/>
</svg>
