<svg width="1141" height="1231" viewBox="0 0 1141 1231" fill="none" xmlns="http://www.w3.org/2000/svg">
<path fill-rule="evenodd" clip-rule="evenodd" d="M1141 33.3638C1115.46 21.8904 1089.19 12.7794 1062.62 6.38025C976.455 -14.3745 900.673 20.7755 826.981 71.0018C800.744 88.8842 774.729 108.709 748.591 128.627L748.59 128.629C738.025 136.68 727.44 144.746 716.812 152.706C679.866 180.376 642.371 206.781 603.249 226.916C577.655 240.089 551.953 251.919 526.492 263.519C524.066 264.624 521.642 265.727 519.221 266.829L519.217 266.831C496.234 277.292 473.474 287.651 451.224 298.719C402.028 323.193 355.268 351.165 313.909 391.496C283.414 421.235 246.971 450.744 209.871 480.786L209.87 480.787L209.248 481.291C207.762 482.494 206.274 483.699 204.786 484.904C165.958 516.356 126.682 548.423 93.101 581.916C25.972 648.87 -18.6912 721.822 8.80451 807.314C22.7255 850.599 50.4967 877.971 86.807 895.891C123.074 913.789 167.865 922.262 215.884 927.816C238.128 930.389 261.089 932.338 284.234 934.302L289.774 934.772C314.8 936.901 339.995 939.108 364.725 942.199C414.195 948.384 461.727 958.101 502.204 977.759C536.69 994.508 567.573 1020.54 596.867 1049.7C611.512 1064.27 625.748 1079.61 639.835 1094.95C641.952 1097.26 644.065 1099.56 646.176 1101.86C658.109 1114.88 669.962 1127.8 681.88 1140.15C737.931 1198.23 795.785 1243.95 871.355 1226.31C946.731 1208.72 979.55 1143.28 1004.53 1066.99C1010.65 1048.29 1016.31 1028.9 1022.01 1009.39L1022.02 1009.38L1022.37 1008.18C1028.19 988.246 1034.06 968.187 1040.53 948.547C1053.46 909.261 1068.75 871.723 1090.67 840.374C1105.25 819.533 1122.35 800.117 1141 781.643V778.833C1121.74 797.787 1104.06 817.745 1089.04 839.228C1066.94 870.816 1051.58 908.574 1038.63 947.921C1032.15 967.598 1026.27 987.69 1020.45 1007.62L1020.1 1008.81L1020.1 1008.81C1014.4 1028.34 1008.74 1047.69 1002.63 1066.37C977.653 1142.65 945.123 1207.04 870.9 1224.37C796.51 1241.73 739.388 1196.85 683.319 1138.76C671.424 1126.44 659.594 1113.54 647.665 1100.53L647.658 1100.52C646.435 1099.19 645.21 1097.85 643.985 1096.51C643.093 1095.54 642.201 1094.57 641.308 1093.6C627.22 1078.26 612.957 1062.89 598.278 1048.28C568.925 1019.07 537.858 992.851 503.077 975.96C462.303 956.157 414.512 946.408 364.973 940.215C340.199 937.118 314.967 934.908 289.944 932.78L285.415 932.395L284.397 932.308L284.379 932.307C261.237 930.343 238.316 928.397 216.114 925.829C168.139 920.281 123.635 911.836 87.6921 894.097C51.7928 876.38 24.44 849.397 10.7084 806.702C-16.4179 722.358 27.4888 650.182 94.5134 583.332C128.009 549.924 167.206 517.919 206.045 486.458C207.75 485.077 209.454 483.697 211.158 482.318C248.233 452.296 284.742 422.733 315.306 392.928C356.453 352.803 403.006 324.941 452.115 300.51C474.333 289.457 497.063 279.112 520.052 268.648C522.473 267.547 524.896 266.444 527.322 265.339C552.782 253.739 578.523 241.891 604.164 228.694C643.441 208.479 681.047 181.99 718.011 154.307C728.669 146.324 739.272 138.244 749.846 130.186L749.85 130.184C775.97 110.279 801.917 90.5049 828.107 72.6544C901.688 22.5038 976.847 -12.2228 1062.15 8.32471C1088.88 14.7622 1115.31 23.9593 1141 35.5572V33.3638ZM1141 157.544C1100.87 130.161 1056.63 109.757 1011.34 98.8456C939.798 81.6071 876.892 110.786 815.765 152.44C794.002 167.269 772.422 183.711 750.744 200.227L750.738 200.232C741.977 206.907 733.2 213.594 724.388 220.193C693.748 243.135 662.66 265.023 630.226 281.711C609.003 292.63 587.689 302.438 566.572 312.055L563.994 313.229L560.541 314.8C541.479 323.473 522.598 332.064 504.14 341.243C463.33 361.539 424.53 384.741 390.212 418.203C364.927 442.857 334.708 467.322 303.936 492.235L303.173 492.853L299.722 495.647C267.521 521.726 234.94 548.322 207.083 576.102C151.401 631.631 114.298 692.194 137.144 763.196C148.711 799.144 171.784 821.88 201.938 836.763C232.048 851.623 269.225 858.657 309.058 863.268C327.509 865.404 346.555 867.022 365.75 868.654L370.351 869.045C391.108 870.812 412.003 872.645 432.512 875.211C473.539 880.344 512.942 888.404 546.492 904.699C575.073 918.58 600.675 940.161 624.971 964.337C637.116 976.422 648.923 989.144 660.609 1001.86C662.367 1003.78 664.123 1005.69 665.876 1007.61L665.879 1007.61C675.774 1018.4 685.605 1029.12 695.49 1039.36C741.985 1087.52 790.038 1125.52 852.817 1110.88C915.433 1096.27 942.673 1041.92 963.385 978.648C968.464 963.137 973.157 947.061 977.882 930.879L978.177 929.87C983.003 913.341 987.872 896.708 993.232 880.424C1003.95 847.851 1016.63 816.739 1034.79 790.764C1056.74 759.383 1085.6 731.9 1116.52 705.907C1124.57 699.138 1132.76 692.472 1141 685.866V683.303C1132.33 690.244 1123.71 697.252 1115.23 704.376C1084.27 730.41 1055.25 758.025 1033.15 789.618C1014.82 815.833 1002.08 847.163 991.332 879.799C985.96 896.12 981.082 912.785 976.257 929.309L975.967 930.302C971.239 946.495 966.553 962.545 961.485 978.026C940.776 1041.28 913.826 1094.59 852.362 1108.93C790.763 1123.3 743.441 1086.15 696.929 1037.97C687.066 1027.75 677.257 1017.05 667.364 1006.27L667.354 1006.26L665.022 1003.71C664.043 1002.65 663.063 1001.58 662.081 1000.51C650.395 987.79 638.561 975.039 626.381 962.919C602.027 938.685 576.24 916.923 547.366 902.9C513.519 886.461 473.856 878.368 432.76 873.226C412.207 870.655 391.276 868.82 370.521 867.052L365.93 866.661C346.726 865.03 327.709 863.414 309.288 861.281C269.499 856.675 232.609 849.67 202.823 834.969C173.08 820.29 150.425 797.942 139.048 762.583C116.572 692.73 152.918 632.943 208.495 577.519C236.267 549.822 268.768 523.29 300.981 497.201L305.224 493.766C335.971 468.873 366.255 444.355 391.609 419.635C425.715 386.38 464.308 363.286 505.031 343.034C523.454 333.872 542.301 325.296 561.367 316.622L561.373 316.619L561.801 316.425C563.666 315.576 565.533 314.726 567.401 313.875C588.518 304.258 609.871 294.433 631.141 283.489C663.731 266.721 694.929 244.75 725.587 221.793C734.429 215.172 743.224 208.471 751.995 201.789C773.658 185.284 795.173 168.892 816.891 154.093C877.907 112.515 940.19 83.7588 1010.87 100.79C1056.33 111.743 1100.76 132.325 1141 159.968V157.544ZM1141 340.631C1132.01 326.896 1121.85 313.776 1110.73 301.441C1067.63 253.619 1010.09 217.521 950.179 203.042C895.249 189.766 847.004 212.09 800.191 243.92C783.523 255.254 766.993 267.824 750.395 280.447C743.689 285.546 736.972 290.654 730.23 295.693C706.775 313.221 682.988 329.933 658.171 342.666C641.924 351 625.608 358.485 609.437 365.826C607.897 366.525 606.358 367.223 604.821 367.92C590.222 374.541 575.759 381.1 561.62 388.111C530.359 403.612 500.627 421.346 474.337 446.946C454.994 465.78 431.873 484.467 408.317 503.504L408.31 503.51C407.237 504.377 406.162 505.246 405.087 506.115C380.439 526.042 355.489 546.372 334.159 567.617C291.532 610.073 263.066 656.475 280.674 710.96C298.525 766.197 351.688 780.724 412.669 787.84C426.81 789.491 441.406 790.746 456.112 792.01L459.642 792.313C475.548 793.684 491.554 795.103 507.265 797.083C538.695 801.045 568.862 807.242 594.546 819.723C616.423 830.352 636.035 846.867 654.664 865.38C663.975 874.635 673.029 884.376 681.993 894.12C683.341 895.584 684.687 897.05 686.031 898.513C693.623 906.779 701.169 914.993 708.754 922.841C744.416 959.736 781.35 988.953 829.574 977.769C877.674 966.614 898.532 924.92 914.348 876.523C918.227 864.653 921.811 852.352 925.418 839.974L925.642 839.203C929.326 826.559 933.041 813.84 937.133 801.388C945.318 776.479 954.991 752.71 968.868 732.877C985.638 708.909 1007.71 687.919 1031.37 668.061C1043.11 658.205 1055.24 648.638 1067.29 639.124L1067.56 638.914C1079.7 629.335 1091.76 619.808 1103.27 610.113C1116.86 598.663 1129.7 586.958 1141 574.62V571.644C1129.45 584.474 1116.16 596.643 1101.98 608.583C1090.5 618.254 1078.46 627.761 1066.32 637.344L1066.04 637.562C1054 647.07 1041.85 656.653 1030.09 666.529C1006.38 686.428 984.148 707.55 967.229 731.731C953.184 751.803 943.439 775.793 935.233 800.764C931.129 813.253 927.405 826.004 923.722 838.644L923.503 839.397C919.893 851.787 916.316 864.062 912.447 875.902C896.635 924.287 876.066 964.934 829.123 975.821C782.076 986.731 745.872 958.364 710.192 921.451C702.625 913.623 695.099 905.429 687.506 897.162C686.161 895.698 684.815 894.232 683.465 892.765C674.5 883.02 665.42 873.25 656.073 863.962C637.386 845.39 617.59 828.696 595.421 817.924C569.44 805.3 539.014 799.069 507.515 795.099C491.76 793.113 475.718 791.691 459.814 790.321L456.294 790.018L456.276 790.017C441.568 788.752 427.006 787.5 412.901 785.854C351.857 778.73 300.006 764.276 282.577 710.345C265.341 657.01 293.048 611.385 335.57 569.034C356.815 547.874 381.685 527.606 406.345 507.67L409.596 505.042L409.597 505.042C433.13 486.023 456.32 467.281 475.732 448.379C501.81 422.985 531.335 405.36 562.509 389.903C576.613 382.909 591.042 376.365 605.644 369.743C607.182 369.046 608.722 368.347 610.263 367.647C626.435 360.306 642.79 352.804 659.084 344.445C684.057 331.633 707.955 314.837 731.427 297.295C738.199 292.234 744.933 287.113 751.648 282.007L751.65 282.005C768.231 269.396 784.694 256.876 801.316 245.574C848.016 213.82 895.638 191.918 949.709 204.986C1009.18 219.36 1066.39 255.225 1109.25 302.78C1121 315.817 1131.66 329.728 1141 344.31V340.631ZM880.887 322.199C919.613 331.531 956.858 354.883 984.75 385.879C1012.64 416.876 1031.12 455.449 1032.44 495.184C1033.7 533.088 1009.83 559.885 979.822 585.209C972.327 591.532 964.467 597.75 956.536 604.021L956.352 604.166L956.342 604.174C948.478 610.392 940.547 616.662 932.861 623.124C917.366 636.151 902.819 649.991 891.734 665.841C882.525 679.008 876.135 694.728 870.758 711.062C868.069 719.231 865.628 727.572 863.216 735.833L863.073 736.323C860.708 744.423 858.366 752.442 855.834 760.176C845.481 791.802 832.078 818.196 801.635 825.297C771.13 832.413 747.652 814.052 724.391 789.954C719.462 784.848 714.56 779.503 709.611 774.107C708.734 773.151 707.856 772.194 706.976 771.236C701.132 764.875 695.209 758.492 689.111 752.424C676.919 740.292 663.979 729.366 649.468 722.318C632.471 714.063 612.574 710.008 592.009 707.435C581.722 706.148 571.247 705.23 560.87 704.346L558.573 704.151C548.971 703.335 539.47 702.527 530.269 701.462C510.385 699.161 492.012 695.665 477.2 688.355C462.431 681.066 451.208 669.989 445.567 652.457C434.421 617.818 452.405 588.118 480.168 560.432C494.033 546.605 510.263 533.354 526.372 520.307L528.5 518.584L528.503 518.582C543.869 506.142 559.027 493.87 571.721 481.494C588.721 464.918 607.966 453.398 628.305 443.283C637.505 438.708 646.918 434.425 656.448 430.089L656.464 430.082L657.869 429.442L659.475 428.711C670.034 423.902 680.72 418.985 691.367 413.507C707.7 405.104 723.327 394.097 738.66 382.615C743.089 379.299 747.491 375.945 751.879 372.602L751.881 372.6C762.707 364.352 773.447 356.169 784.294 348.778C814.774 328.008 845.76 313.736 880.887 322.199ZM1034.44 495.118C1033.1 454.81 1014.37 415.804 986.237 384.541C958.104 353.278 920.515 329.691 881.355 320.255C845.368 311.584 813.759 326.28 783.168 347.125C772.274 354.548 761.467 362.782 750.623 371.045C746.244 374.38 741.86 377.721 737.461 381.014C722.146 392.482 706.629 403.405 690.451 411.729C679.851 417.183 669.204 422.082 658.646 426.891C657.64 427.349 656.635 427.806 655.631 428.263L655.63 428.264C646.1 432.6 636.652 436.899 627.415 441.492C606.988 451.651 587.536 463.279 570.324 480.062C557.698 492.372 542.606 504.592 527.213 517.053L525.113 518.753C509.016 531.791 492.705 545.104 478.755 559.016C450.888 586.806 432.148 617.281 443.663 653.069C449.494 671.191 461.135 682.656 476.315 690.148C491.451 697.618 510.111 701.142 530.039 703.449C539.271 704.518 548.801 705.328 558.396 706.143L560.7 706.339C571.079 707.223 581.518 708.138 591.761 709.42C612.257 711.984 631.894 716.006 648.595 724.117C662.812 731.022 675.566 741.768 687.7 753.841C693.764 759.875 699.661 766.229 705.503 772.589C706.38 773.544 707.256 774.498 708.131 775.452C713.08 780.849 718.003 786.216 722.952 791.343C746.195 815.423 770.405 834.636 802.089 827.245C833.686 819.875 847.378 792.435 857.735 760.798C860.276 753.036 862.625 744.993 864.986 736.905L864.99 736.891L865.136 736.393C867.549 728.128 869.981 719.819 872.658 711.687C878.014 695.416 884.331 679.915 893.373 666.987C904.309 651.35 918.701 637.641 934.148 624.655C941.811 618.213 949.721 611.958 957.592 605.735L957.597 605.731L957.776 605.59C965.703 599.322 973.588 593.085 981.111 586.737C1011.17 561.377 1035.73 534.03 1034.44 495.118ZM814.944 429.364C834.199 434.003 852.736 445.621 866.621 461.052C880.508 476.484 889.685 495.662 890.339 515.387C890.958 534.086 879.202 547.348 864.206 560C860.466 563.156 856.543 566.26 852.576 569.396L852.476 569.475C848.546 572.582 844.576 575.722 840.727 578.957C832.967 585.481 825.655 592.434 820.075 600.412C815.429 607.055 812.216 614.97 809.522 623.152C808.174 627.247 806.952 631.425 805.746 635.554L805.675 635.796L805.672 635.807C804.49 639.856 803.322 643.855 802.06 647.71C796.884 663.521 790.255 676.456 775.322 679.94C760.364 683.429 748.808 674.461 737.173 662.408C734.714 659.86 732.267 657.193 729.792 654.494C729.354 654.016 728.915 653.537 728.474 653.058C725.552 649.877 722.584 646.678 719.526 643.635C713.415 637.555 706.899 632.047 699.571 628.487C690.997 624.324 680.985 622.288 670.685 621C665.53 620.355 660.284 619.895 655.095 619.453L653.943 619.355C649.142 618.947 644.401 618.544 639.81 618.012C629.879 616.863 620.764 615.122 613.439 611.507C606.158 607.913 600.651 602.472 597.878 593.853C592.397 576.821 601.2 562.165 615.055 548.348C621.966 541.455 630.061 534.846 638.119 528.32L639.189 527.454L639.195 527.449C646.87 521.235 654.465 515.087 660.827 508.883C669.275 500.646 678.845 494.914 688.993 489.867C693.588 487.582 698.288 485.443 703.058 483.274L704.563 482.589C709.842 480.184 715.195 477.721 720.53 474.976C728.736 470.754 736.576 465.23 744.248 459.486C746.464 457.827 748.663 456.151 750.853 454.482L750.87 454.469C756.28 450.348 761.634 446.268 767.047 442.58C782.259 432.214 797.596 425.184 814.944 429.364ZM892.337 515.321C891.665 495.023 882.234 475.412 868.108 459.714C853.981 444.016 835.101 432.163 815.413 427.419C797.204 423.032 781.244 430.486 765.92 440.927C760.463 444.646 755.044 448.774 749.62 452.907L749.615 452.911C747.428 454.577 745.241 456.244 743.049 457.885C735.396 463.616 727.665 469.056 719.615 473.198C714.327 475.919 709.013 478.364 703.734 480.768L702.227 481.454L702.225 481.455C697.461 483.623 692.729 485.776 688.103 488.076C677.867 493.167 668.09 499.008 659.431 507.451C653.135 513.59 645.605 519.686 637.902 525.922L636.86 526.766C628.814 533.283 620.639 539.955 613.643 546.932C599.683 560.853 590.124 576.285 595.974 594.466C598.936 603.674 604.862 609.504 612.554 613.3C620.203 617.075 629.605 618.844 639.58 619.999C644.204 620.534 648.977 620.94 653.773 621.348L653.778 621.348L654.926 621.446C660.116 621.888 665.326 622.345 670.436 622.984C680.667 624.264 690.421 626.267 698.697 630.286C705.732 633.703 712.063 639.031 718.115 645.053C721.139 648.062 724.081 651.231 727.001 654.411C727.316 654.754 727.631 655.097 727.946 655.44L728.317 655.844C730.791 658.542 733.256 661.229 735.734 663.797C747.352 675.832 759.639 685.651 775.776 681.887C791.863 678.135 798.781 664.154 803.961 648.333C805.233 644.448 806.408 640.424 807.586 636.387L807.591 636.372L807.666 636.115C808.873 631.981 810.086 627.835 811.422 623.778C814.095 615.658 817.235 607.962 821.714 601.558C827.145 593.792 834.302 586.971 842.014 580.488C845.842 577.27 849.795 574.144 853.736 571.029L853.816 570.965C857.779 567.832 861.728 564.709 865.496 561.529C880.535 548.839 892.99 535.028 892.337 515.321Z" fill="#578295"/>
</svg>
