<svg width="93" height="60" viewBox="0 0 93 60" fill="none" xmlns="http://www.w3.org/2000/svg">
<path fill-rule="evenodd" clip-rule="evenodd" d="M23.7304 26.9828C23.7304 26.9828 25.5746 26.5389 26.6833 22.6977C26.7212 22.8172 26.7618 22.9445 26.8047 23.0793C28.0558 27.0059 31.3389 37.3097 29.4027 47.2416C29.082 49.4669 28.266 51.5901 27.0158 53.4522C25.7656 55.3143 24.1137 56.867 22.1839 57.9939C20.2541 59.1207 18.0963 59.7926 15.8724 59.9591C13.6485 60.1256 11.416 59.7824 9.34231 58.9553C7.2686 58.1281 5.40743 56.8385 3.89825 55.183C2.38907 53.5274 1.27102 51.549 0.627894 49.3958C-0.0152365 47.2427 -0.166775 44.9707 0.184634 42.7501C0.536043 40.5295 1.38129 38.4179 2.65703 36.5735C3.47926 35.2635 4.2169 34.1317 4.86923 33.1308C8.80659 27.0897 9.63611 25.8169 7.20189 18.8945C5.8845 15.1949 5.87502 11.1499 7.17505 7.44409C8.13377 4.83202 9.37715 2.33536 10.8823 0C10.8823 0 10.3025 3.70039 10.5629 5.08093C10.5785 5.1638 10.5936 5.24683 10.6087 5.33047C10.9061 6.9707 11.2448 8.83939 16.7748 14.1194C18.7184 15.971 20.4821 18.0255 21.6392 20.4645C22.5895 22.4866 23.1935 24.5465 23.7304 26.9828ZM22.9364 44.8594C22.9364 49.3025 19.3643 52.9044 14.958 52.9044C10.5517 52.9044 6.97968 49.3025 6.97968 44.8594C6.97968 40.4162 10.5517 36.8144 14.958 36.8144C19.3643 36.8144 22.9364 40.4162 22.9364 44.8594Z" fill="black"/>
<path d="M50.88 24.8H50.98C51.0733 24.8 51.16 24.7667 51.24 24.7C51.32 24.62 51.3867 24.5267 51.44 24.42C51.5067 24.3 51.5533 24.18 51.58 24.06C51.6067 23.9267 51.62 23.8067 51.62 23.7V18.26H45.22V23.7C45.22 23.8067 45.2333 23.9267 45.26 24.06C45.2867 24.18 45.3267 24.2933 45.38 24.4C45.4333 24.5067 45.4933 24.6 45.56 24.68C45.64 24.76 45.7333 24.8 45.84 24.8H45.94V25H43.14V24.8H43.24C43.3333 24.8 43.42 24.7667 43.5 24.7C43.58 24.62 43.6467 24.5267 43.7 24.42C43.7667 24.3 43.8133 24.18 43.84 24.06C43.8667 23.9267 43.88 23.8067 43.88 23.7V13.04C43.88 12.9467 43.8667 12.84 43.84 12.72C43.8133 12.6 43.7733 12.4867 43.72 12.38C43.6667 12.2733 43.6 12.1867 43.52 12.12C43.44 12.04 43.3467 12 43.24 12H43.14V11.8H45.94V12H45.84C45.7333 12 45.64 12.04 45.56 12.12C45.48 12.1867 45.4133 12.2733 45.36 12.38C45.32 12.4867 45.2867 12.6 45.26 12.72C45.2333 12.84 45.22 12.9467 45.22 13.04V17.56H51.62V13.04C51.62 12.9467 51.6067 12.84 51.58 12.72C51.5533 12.6 51.5133 12.4867 51.46 12.38C51.4067 12.2733 51.34 12.1867 51.26 12.12C51.18 12.04 51.0867 12 50.98 12H50.88V11.8H53.68V12H53.58C53.4733 12 53.38 12.04 53.3 12.12C53.22 12.1867 53.1533 12.2733 53.1 12.38C53.06 12.4867 53.0267 12.6 53 12.72C52.9733 12.84 52.96 12.9467 52.96 13.04V23.7C52.96 23.8067 52.9733 23.9267 53 24.06C53.04 24.18 53.0867 24.2933 53.14 24.4C53.1933 24.5067 53.2533 24.6 53.32 24.68C53.4 24.76 53.4867 24.8 53.58 24.8H53.68V25H50.88V24.8ZM63.3614 23.7C63.3614 23.8067 63.3747 23.9267 63.4014 24.06C63.4414 24.18 63.4881 24.2933 63.5414 24.4C63.5947 24.5067 63.6614 24.6 63.7414 24.68C63.8347 24.76 63.9214 24.8 64.0014 24.8V25H61.4414V24.8C61.5347 24.8 61.6214 24.7667 61.7014 24.7C61.7814 24.62 61.8481 24.5267 61.9014 24.42C61.9547 24.3 61.9947 24.18 62.0214 24.06C62.0481 23.9267 62.0614 23.8067 62.0614 23.7V18.9L57.3014 23.56V23.7C57.3014 23.8067 57.3147 23.9267 57.3414 24.06C57.3681 24.18 57.4081 24.2933 57.4614 24.4C57.5147 24.5067 57.5747 24.6 57.6414 24.68C57.7214 24.76 57.8081 24.8 57.9014 24.8V25H55.3614V24.8C55.4547 24.8 55.5414 24.7667 55.6214 24.7C55.7014 24.62 55.7681 24.5267 55.8214 24.42C55.8747 24.3 55.9147 24.18 55.9414 24.06C55.9681 23.9267 55.9814 23.8067 55.9814 23.7V17.84C55.9814 17.7467 55.9681 17.64 55.9414 17.52C55.9147 17.4 55.8747 17.2867 55.8214 17.18C55.7681 17.0733 55.7014 16.9867 55.6214 16.92C55.5414 16.84 55.4547 16.8 55.3614 16.8V16.6H57.9014V16.8C57.7947 16.8 57.7014 16.84 57.6214 16.92C57.5547 16.9867 57.4947 17.0733 57.4414 17.18C57.4014 17.2867 57.3681 17.4 57.3414 17.52C57.3147 17.64 57.3014 17.7467 57.3014 17.84V22.62L62.0614 17.96V17.84C62.0614 17.7467 62.0481 17.64 62.0214 17.52C61.9947 17.4 61.9547 17.2867 61.9014 17.18C61.8481 17.0733 61.7814 16.9867 61.7014 16.92C61.6214 16.84 61.5347 16.8 61.4414 16.8V16.6H64.0014V16.8C63.8947 16.8 63.7947 16.84 63.7014 16.92C63.6214 16.9867 63.5547 17.0733 63.5014 17.18C63.4614 17.2867 63.4281 17.4 63.4014 17.52C63.3747 17.64 63.3614 17.7467 63.3614 17.84V23.7ZM72.6873 18.7C72.6873 18.5533 72.6607 18.3933 72.6073 18.22C72.554 18.0467 72.474 17.8933 72.3673 17.76C72.2607 17.6133 72.1273 17.4933 71.9673 17.4C71.8073 17.3067 71.6207 17.26 71.4073 17.26H69.6473V23.7C69.6473 23.8067 69.6607 23.92 69.6873 24.04C69.714 24.16 69.754 24.28 69.8073 24.4C69.874 24.5067 69.9407 24.6 70.0073 24.68C70.0873 24.76 70.1807 24.8 70.2873 24.8V25L67.6873 25V24.8C67.794 24.8 67.8873 24.76 67.9673 24.68C68.0473 24.6 68.114 24.5067 68.1673 24.4C68.234 24.2933 68.2807 24.18 68.3073 24.06C68.334 23.9267 68.3473 23.8067 68.3473 23.7V17.26H66.6273C66.414 17.26 66.2273 17.3067 66.0673 17.4C65.9073 17.4933 65.774 17.6133 65.6673 17.76C65.574 17.8933 65.5007 18.0467 65.4473 18.22C65.394 18.3933 65.3673 18.5533 65.3673 18.7H65.1673V16.6H72.8673V18.7H72.6873ZM82.0333 23.7C82.0333 23.8067 82.0466 23.9267 82.0733 24.06C82.1133 24.18 82.1599 24.2933 82.2133 24.4C82.2666 24.5067 82.3333 24.6 82.4133 24.68C82.5066 24.76 82.5933 24.8 82.6733 24.8V25H80.1133V24.8C80.2066 24.8 80.2933 24.7667 80.3733 24.7C80.4533 24.62 80.5199 24.5267 80.5733 24.42C80.6266 24.3 80.6666 24.18 80.6933 24.06C80.7199 23.9267 80.7333 23.8067 80.7333 23.7V18.9L75.9733 23.56V23.7C75.9733 23.8067 75.9866 23.9267 76.0133 24.06C76.0399 24.18 76.0799 24.2933 76.1333 24.4C76.1866 24.5067 76.2466 24.6 76.3133 24.68C76.3933 24.76 76.4799 24.8 76.5733 24.8V25H74.0333V24.8C74.1266 24.8 74.2133 24.7667 74.2933 24.7C74.3733 24.62 74.4399 24.5267 74.4933 24.42C74.5466 24.3 74.5866 24.18 74.6133 24.06C74.6399 23.9267 74.6533 23.8067 74.6533 23.7V17.84C74.6533 17.7467 74.6399 17.64 74.6133 17.52C74.5866 17.4 74.5466 17.2867 74.4933 17.18C74.4399 17.0733 74.3733 16.9867 74.2933 16.92C74.2133 16.84 74.1266 16.8 74.0333 16.8V16.6L76.5733 16.6V16.8C76.4666 16.8 76.3733 16.84 76.2933 16.92C76.2266 16.9867 76.1666 17.0733 76.1133 17.18C76.0733 17.2867 76.0399 17.4 76.0133 17.52C75.9866 17.64 75.9733 17.7467 75.9733 17.84V22.62L80.7333 17.96V17.84C80.7333 17.7467 80.7199 17.64 80.6933 17.52C80.6666 17.4 80.6266 17.2867 80.5733 17.18C80.5199 17.0733 80.4533 16.9867 80.3733 16.92C80.2933 16.84 80.2066 16.8 80.1133 16.8V16.6H82.6733V16.8C82.5666 16.8 82.4666 16.84 82.3733 16.92C82.2933 16.9867 82.2266 17.0733 82.1733 17.18C82.1333 17.2867 82.0999 17.4 82.0733 17.52C82.0466 17.64 82.0333 17.7467 82.0333 17.84V23.7ZM55.2 46.3V48.8H55C54.9867 48.6267 54.94 48.4333 54.86 48.22C54.78 48.0067 54.6667 47.8067 54.52 47.62C54.3867 47.4467 54.2267 47.3 54.04 47.18C53.8533 47.06 53.6467 47 53.42 47H44.2C43.9733 47 43.7667 47.06 43.58 47.18C43.3933 47.3133 43.2267 47.4667 43.08 47.64C42.9467 47.8267 42.8333 48.0267 42.74 48.24C42.66 48.4533 42.6133 48.64 42.6 48.8H42.4V46.3H43.28C43.7067 46.3 44.0067 46.0533 44.18 45.56L48.78 33.5L53.42 45.5C53.5133 45.7 53.64 45.8867 53.8 46.06C53.96 46.22 54.1467 46.3 54.36 46.3H55.2ZM44.62 46.3H52.32L48.46 36.36L44.62 46.3ZM59.2055 49.86C59.0188 50.42 58.7788 50.8 58.4855 51C58.2055 51.2 57.9121 51.3 57.6055 51.3C57.4055 51.3 57.2255 51.2667 57.0655 51.2C56.9055 51.1333 56.7655 51.06 56.6455 50.98C56.5255 50.9 56.4321 50.8267 56.3655 50.76C56.3121 50.6933 56.2855 50.66 56.2855 50.66L56.9455 49.04C56.9988 49.2533 57.0655 49.4333 57.1455 49.58C57.2121 49.7133 57.3055 49.8333 57.4255 49.94C57.5455 50.0467 57.6921 50.1 57.8655 50.1C58.1855 50.1 58.4388 49.8667 58.6255 49.4L59.5855 46.94L56.3855 39.66C56.2788 39.4333 56.1655 39.2333 56.0455 39.06C55.9388 38.8867 55.7521 38.8 55.4855 38.8V38.6H58.0655V38.8C58.0121 38.8 57.9455 38.8467 57.8655 38.94C57.7855 39.0333 57.7455 39.1533 57.7455 39.3C57.7455 39.4067 57.7721 39.5133 57.8255 39.62L60.2855 45.28L62.6455 39.5C62.6855 39.4067 62.7055 39.32 62.7055 39.24C62.7055 39.1067 62.6588 39 62.5655 38.92C62.4855 38.84 62.3988 38.8 62.3055 38.8V38.6H64.2455V38.8C64.0321 38.8 63.8455 38.8933 63.6855 39.08C63.5388 39.2533 63.4188 39.4533 63.3255 39.68L59.2055 49.86ZM67.3581 46.34H70.9781V39.9C70.9781 39.8067 70.9648 39.6933 70.9381 39.56C70.9115 39.4267 70.8715 39.3067 70.8181 39.2C70.7781 39.0933 70.7181 39 70.6381 38.92C70.5581 38.84 70.4715 38.8 70.3781 38.8V38.6H72.8581V38.8C72.7515 38.8 72.6581 38.84 72.5781 38.92C72.5115 38.9867 72.4515 39.0733 72.3981 39.18C72.3581 39.2867 72.3248 39.4 72.2981 39.52C72.2715 39.6267 72.2581 39.72 72.2581 39.8V46.34L75.8981 46.34V39.9C75.8981 39.8067 75.8848 39.6933 75.8581 39.56C75.8448 39.4267 75.8115 39.3067 75.7581 39.2C75.7181 39.0933 75.6581 39 75.5781 38.92C75.4981 38.84 75.3981 38.8 75.2781 38.8V38.6H77.7981V38.8C77.6915 38.8 77.5981 38.84 77.5181 38.92C77.4515 39 77.3915 39.0933 77.3381 39.2C77.2848 39.3067 77.2448 39.4267 77.2181 39.56C77.2048 39.6933 77.1981 39.8067 77.1981 39.9V45.76C77.1981 45.8533 77.2115 45.96 77.2381 46.08C77.2648 46.2 77.2981 46.3133 77.3381 46.42C77.3915 46.5267 77.4515 46.62 77.5181 46.7C77.5981 46.7667 77.6848 46.8 77.7781 46.8V47L65.4781 47V46.8C65.5715 46.8 65.6515 46.7667 65.7181 46.7C65.7848 46.62 65.8448 46.5267 65.8981 46.42C65.9515 46.3133 65.9915 46.2 66.0181 46.08C66.0448 45.96 66.0581 45.8533 66.0581 45.76V39.9C66.0581 39.8067 66.0448 39.6933 66.0181 39.56C66.0048 39.4267 65.9715 39.3067 65.9181 39.2C65.8781 39.0933 65.8181 39 65.7381 38.92C65.6715 38.84 65.5848 38.8 65.4781 38.8V38.6H67.9581V38.8C67.8515 38.8 67.7581 38.84 67.6781 38.92C67.5981 39 67.5315 39.0933 67.4781 39.2C67.4381 39.3067 67.4048 39.4267 67.3781 39.56C67.3648 39.6933 67.3581 39.8067 67.3581 39.9V46.34ZM87.6388 45.7C87.6388 45.8067 87.6521 45.9267 87.6788 46.06C87.7188 46.18 87.7654 46.2933 87.8188 46.4C87.8721 46.5067 87.9388 46.6 88.0188 46.68C88.1121 46.76 88.1988 46.8 88.2788 46.8V47H85.7188V46.8C85.8121 46.8 85.8988 46.7667 85.9788 46.7C86.0588 46.62 86.1254 46.5267 86.1788 46.42C86.2321 46.3 86.2721 46.18 86.2988 46.06C86.3254 45.9267 86.3388 45.8067 86.3388 45.7V40.9L81.5788 45.56V45.7C81.5788 45.8067 81.5921 45.9267 81.6188 46.06C81.6454 46.18 81.6854 46.2933 81.7388 46.4C81.7921 46.5067 81.8521 46.6 81.9188 46.68C81.9988 46.76 82.0854 46.8 82.1788 46.8V47H79.6388V46.8C79.7321 46.8 79.8188 46.7667 79.8988 46.7C79.9788 46.62 80.0454 46.5267 80.0988 46.42C80.1521 46.3 80.1921 46.18 80.2188 46.06C80.2454 45.9267 80.2588 45.8067 80.2588 45.7V39.84C80.2588 39.7467 80.2454 39.64 80.2188 39.52C80.1921 39.4 80.1521 39.2867 80.0988 39.18C80.0454 39.0733 79.9788 38.9867 79.8988 38.92C79.8188 38.84 79.7321 38.8 79.6388 38.8V38.6H82.1788V38.8C82.0721 38.8 81.9788 38.84 81.8988 38.92C81.8321 38.9867 81.7721 39.0733 81.7188 39.18C81.6788 39.2867 81.6454 39.4 81.6188 39.52C81.5921 39.64 81.5788 39.7467 81.5788 39.84V44.62L86.3388 39.96V39.84C86.3388 39.7467 86.3254 39.64 86.2988 39.52C86.2721 39.4 86.2321 39.2867 86.1788 39.18C86.1254 39.0733 86.0588 38.9867 85.9788 38.92C85.8988 38.84 85.8121 38.8 85.7188 38.8V38.6H88.2788V38.8C88.1721 38.8 88.0721 38.84 87.9788 38.92C87.8988 38.9867 87.8321 39.0733 87.7788 39.18C87.7388 39.2867 87.7054 39.4 87.6788 39.52C87.6521 39.64 87.6388 39.7467 87.6388 39.84V45.7Z" fill="#1A1A1A"/>
</svg>
