<svg width="324" height="500" viewBox="0 0 324 500" fill="none" xmlns="http://www.w3.org/2000/svg">
<path fill-rule="evenodd" clip-rule="evenodd" d="M256.035 288.146C256.035 288.146 275.933 283.405 287.895 242.386C288.304 243.662 288.741 245.021 289.205 246.461C302.704 288.392 338.126 398.425 317.236 504.486C313.775 528.25 304.971 550.924 291.482 570.809C277.994 590.694 260.171 607.275 239.349 619.309C218.528 631.343 195.247 638.517 171.253 640.295C147.258 642.073 123.171 638.409 100.797 629.576C78.4233 620.743 58.3425 606.971 42.0595 589.292C25.7764 571.612 13.7135 550.485 6.77455 527.492C-0.164392 504.498 -1.79939 480.236 1.99207 456.523C5.78354 432.809 14.9031 410.259 28.6675 390.563C37.5389 376.574 45.4975 364.488 52.5357 353.8C95.0171 289.287 103.967 275.696 77.7036 201.771C63.4898 162.264 63.3875 119.069 77.4139 79.4945C87.7579 51.6004 101.173 24.939 117.413 0C117.413 0 111.157 39.516 113.966 54.2586C114.135 55.1435 114.298 56.0302 114.461 56.9233C117.669 74.4392 121.324 94.3947 180.989 150.779C201.959 170.552 220.988 192.492 233.472 218.537C243.725 240.131 250.242 262.129 256.035 288.146ZM247.468 479.047C247.468 526.495 208.928 564.959 161.387 564.959C113.846 564.959 75.3061 526.495 75.3061 479.047C75.3061 431.599 113.846 393.135 161.387 393.135C208.928 393.135 247.468 431.599 247.468 479.047Z" fill="#D9D9D9"/>
</svg>
